<svg width="1280" height="640" viewBox="0 0 1280 640" fill="none" xmlns="http://www.w3.org/2000/svg">
  <rect width="1280" height="640" fill="#08111F"/>
  <rect x="24" y="24" width="1232" height="592" rx="32" fill="url(#panel)"/>
  <g opacity="0.18">
    <path d="M76 116H1204" stroke="#94A3B8" stroke-width="1"/>
    <path d="M76 196H1204" stroke="#94A3B8" stroke-width="1"/>
    <path d="M76 276H1204" stroke="#94A3B8" stroke-width="1"/>
    <path d="M76 356H1204" stroke="#94A3B8" stroke-width="1"/>
    <path d="M76 436H1204" stroke="#94A3B8" stroke-width="1"/>
    <path d="M76 516H1204" stroke="#94A3B8" stroke-width="1"/>
    <path d="M160 72V568" stroke="#94A3B8" stroke-width="1"/>
    <path d="M320 72V568" stroke="#94A3B8" stroke-width="1"/>
    <path d="M480 72V568" stroke="#94A3B8" stroke-width="1"/>
    <path d="M640 72V568" stroke="#94A3B8" stroke-width="1"/>
    <path d="M800 72V568" stroke="#94A3B8" stroke-width="1"/>
    <path d="M960 72V568" stroke="#94A3B8" stroke-width="1"/>
    <path d="M1120 72V568" stroke="#94A3B8" stroke-width="1"/>
  </g>
  <g opacity="0.95">
    <rect x="92" y="88" width="188" height="96" rx="24" fill="#F8FAFC"/>
    <rect x="92" y="232" width="188" height="96" rx="24" fill="#F59E0B"/>
    <rect x="92" y="376" width="188" height="96" rx="24" fill="#38BDF8"/>
    <rect x="92" y="520" width="188" height="48" rx="24" fill="#22C55E"/>
  </g>
  <g opacity="0.95">
    <rect x="998" y="96" width="188" height="82" rx="22" fill="#0F172A" stroke="#F8FAFC" stroke-opacity="0.18"/>
    <rect x="998" y="208" width="188" height="82" rx="22" fill="#0F172A" stroke="#F8FAFC" stroke-opacity="0.18"/>
    <rect x="998" y="320" width="188" height="82" rx="22" fill="#0F172A" stroke="#F8FAFC" stroke-opacity="0.18"/>
    <rect x="998" y="432" width="188" height="82" rx="22" fill="#0F172A" stroke="#F8FAFC" stroke-opacity="0.18"/>
  </g>
  <path d="M280 136C374 136 390 122 472 122C554 122 556 204 640 204C724 204 730 150 812 150C894 150 904 137 998 137" stroke="#F8FAFC" stroke-width="8" stroke-linecap="round"/>
  <path d="M280 280C376 280 394 302 476 302C558 302 566 254 648 254C730 254 742 350 824 350C906 350 918 249 998 249" stroke="#F59E0B" stroke-width="8" stroke-linecap="round"/>
  <path d="M280 424C372 424 398 390 480 390C562 390 572 462 654 462C736 462 744 408 826 408C908 408 910 432 998 432" stroke="#38BDF8" stroke-width="8" stroke-linecap="round"/>
  <path d="M280 544C390 544 404 520 520 520C636 520 642 536 758 536C874 536 894 472 998 472" stroke="#22C55E" stroke-width="8" stroke-linecap="round"/>
  <circle cx="472" cy="122" r="10" fill="#F8FAFC"/>
  <circle cx="640" cy="204" r="10" fill="#F8FAFC"/>
  <circle cx="812" cy="150" r="10" fill="#F8FAFC"/>
  <circle cx="476" cy="302" r="10" fill="#F59E0B"/>
  <circle cx="648" cy="254" r="10" fill="#F59E0B"/>
  <circle cx="824" cy="350" r="10" fill="#F59E0B"/>
  <circle cx="480" cy="390" r="10" fill="#38BDF8"/>
  <circle cx="654" cy="462" r="10" fill="#38BDF8"/>
  <circle cx="826" cy="408" r="10" fill="#38BDF8"/>
  <circle cx="520" cy="520" r="10" fill="#22C55E"/>
  <circle cx="758" cy="536" r="10" fill="#22C55E"/>
  <text x="336" y="176" fill="#F8FAFC" font-size="64" font-family="Arial, Helvetica, sans-serif" font-weight="700">Model Gateway Tester</text>
  <text x="336" y="232" fill="#CBD5E1" font-size="28" font-family="Arial, Helvetica, sans-serif">Test AI gateways by strength, speed, stability, and output behavior.</text>
  <text x="1030" y="145" fill="#F8FAFC" font-size="28" font-family="Arial, Helvetica, sans-serif" font-weight="700">Strength</text>
  <text x="1030" y="257" fill="#F8FAFC" font-size="28" font-family="Arial, Helvetica, sans-serif" font-weight="700">Speed</text>
  <text x="1030" y="369" fill="#F8FAFC" font-size="28" font-family="Arial, Helvetica, sans-serif" font-weight="700">Stability</text>
  <text x="1030" y="481" fill="#F8FAFC" font-size="28" font-family="Arial, Helvetica, sans-serif" font-weight="700">Behavior</text>
  <text x="118" y="145" fill="#0F172A" font-size="28" font-family="Arial, Helvetica, sans-serif" font-weight="700">Hidden</text>
  <text x="118" y="173" fill="#0F172A" font-size="28" font-family="Arial, Helvetica, sans-serif" font-weight="700">Benchmarks</text>
  <text x="118" y="289" fill="#08111F" font-size="28" font-family="Arial, Helvetica, sans-serif" font-weight="700">Shadow</text>
  <text x="118" y="317" fill="#08111F" font-size="28" font-family="Arial, Helvetica, sans-serif" font-weight="700">Audit</text>
  <text x="118" y="433" fill="#08111F" font-size="28" font-family="Arial, Helvetica, sans-serif" font-weight="700">Provider</text>
  <text x="118" y="461" fill="#08111F" font-size="28" font-family="Arial, Helvetica, sans-serif" font-weight="700">Comparison</text>
  <text x="118" y="552" fill="#08111F" font-size="22" font-family="Arial, Helvetica, sans-serif" font-weight="700">JSON Reports</text>
  <defs>
    <linearGradient id="panel" x1="96" y1="48" x2="1160" y2="592" gradientUnits="userSpaceOnUse">
      <stop stop-color="#0F172A"/>
      <stop offset="0.48" stop-color="#102A43"/>
      <stop offset="1" stop-color="#0A2540"/>
    </linearGradient>
  </defs>
</svg>
